<?xml version="1.0" standalone="no"?>
<!DOCTYPE svg PUBLIC "-//W3C//DTD SVG 1.1//EN" "http://www.w3.org/Graphics/SVG/1.1/DTD/svg11.dtd" >
<svg xmlns="http://www.w3.org/2000/svg" xmlns:xlink="http://www.w3.org/1999/xlink" version="1.1">
<metadata>
Created by FontForge 20200511 at Sat Oct 10 11:30:35 2020
 By convertio
</metadata>
<defs>
<font id="Coworking" horiz-adv-x="800" >
  <font-face 
    font-family="Coworking"
    font-weight="400"
    font-stretch="normal"
    units-per-em="1000"
    panose-1="0 0 0 0 0 0 0 0 0 0"
    ascent="750"
    descent="-250"
    cap-height="700"
    bbox="-2 -160 1200 820"
    underline-thickness="50"
    underline-position="-100"
    unicode-range="U+000D-042F"
  />
<missing-glyph 
 />
    <glyph glyph-name=".notdef" 
 />
    <glyph glyph-name="NULL" horiz-adv-x="0" 
 />
    <glyph glyph-name="NULL" horiz-adv-x="0" 
 />
    <glyph glyph-name="nonmarkingreturn" unicode="&#xd;" 
 />
    <glyph glyph-name="space" unicode=" " 
 />
    <glyph glyph-name="uni0420" unicode="&#x420;" horiz-adv-x="713" 
d="M433 350q43 0 71.5 24t43 59.5t14.5 77t-14.5 77t-43 59.5t-71.5 24l-283 -1v-320h283zM150 0h-150v700h523q63 0 105.5 -28t63.5 -70.5t21 -91.5t-21 -91.5t-63.5 -70.5t-105.5 -28h-373v-320z" />
    <glyph glyph-name="uni0424" unicode="&#x424;" horiz-adv-x="1153" 
d="M794 170q69 0 115 28.5t69 71t23 92t-23 91.5t-69 70t-115 28l-143 -1v-380h143zM651 0h-150v140h-233q-89 0 -148.5 32.5t-89.5 81.5t-30 106t30 106t89.5 81.5t148.5 32.5h233v120h150v-120h233q89 0 148.5 -32.5t89.5 -81.5t30 -106t-30 -106t-89.5 -81.5
t-148.5 -32.5h-233v-140zM501 551h-143q-69 1 -115 -27.5t-69 -70.5t-23 -91.5t23 -92t69 -71t115 -28.5h143v381z" />
    <glyph glyph-name="uni041A" unicode="&#x41a;" horiz-adv-x="685" 
d="M0 0v700h150v-700h-150zM513 0l-245 350h172l245 -350h-172zM445 700h38l-245 -350h-38z" />
    <glyph glyph-name="uni041D" unicode="&#x41d;" horiz-adv-x="760" 
d="M610 320h-460v-320h-150v700h150v-350h460v350h150v-700h-150v320v0z" />
    <glyph glyph-name="uni041E" unicode="&#x41e;" horiz-adv-x="900" 
d="M0 349q0 73 20 129.5t54 97.5t79 68.5t95 44.5t102 24t100 7t100 -7t102 -23.5t95 -44.5t79 -69t54 -96.5t20 -128.5t-20 -129.5t-54 -97.5t-79 -68.5t-95 -44.5t-102 -24t-100 -7t-100 7t-102 23.5t-95 44.5t-79 69t-54 96.5t-20 128.5zM149 350q-1 -164 72 -251.5
t229 -88.5q78 0 135 23.5t93.5 68t54.5 108t18 141.5t-18 140.5t-54.5 107t-93.5 68t-135 23.5t-134.5 -22.5t-93.5 -66t-55 -106.5t-18 -145z" />
    <glyph glyph-name="uni0416" unicode="&#x416;" horiz-adv-x="1180" 
d="M515 0v700h150v-700h-150zM1008 0l-245 350h172l245 -350h-172zM940 700h38l-245 -350h-38zM0 0l245 350h172l-245 -350h-172zM485 350h-38l-245 350h38z" />
    <glyph glyph-name="M" unicode="M" horiz-adv-x="1149" 
d="M38 0h-38l491 700h38zM1149 700v-700h-150v700h150zM549 84v616h150v-345l242 345h38z" />
    <glyph glyph-name="uni0423" unicode="&#x423;" horiz-adv-x="801" 
d="M281 300l-281 400h172l281 -400h-172zM310 0h-37l491 700h37z" />
    <glyph glyph-name="uni0418" unicode="&#x418;" horiz-adv-x="762" 
d="M612 0v700h150v-700h-150zM0 0v700h150v-630l394 560h38l-443 -630h-139z" />
    <glyph glyph-name="uni041F" unicode="&#x41f;" horiz-adv-x="760" 
d="M150 670v-670h-150v700h760v-700h-150v670h-460z" />
    <glyph glyph-name="V" unicode="V" horiz-adv-x="726" 
d="M0 700h172l494 -700h-172zM726 700v-700h-30v700h30z" />
    <glyph glyph-name="A" unicode="A" horiz-adv-x="698" 
d="M37 0h-37l491 700h37l-245 -350h265v350h150v-700h-150v320h-286z" />
    <glyph glyph-name="K" unicode="K" horiz-adv-x="685" 
d="M0 0v700h150v-700h-150zM268 350h172l245 -350h-172zM445 700h38l-245 -350h-38z" />
    <glyph glyph-name="N" unicode="N" horiz-adv-x="716" 
d="M544 0l-494 700h172l464 -658v658h30v-700h-172zM0 700h30v-700h-30v700z" />
    <glyph glyph-name="O" unicode="O" horiz-adv-x="900" 
d="M0 349q0 73 20 129.5t54 97.5t79 68.5t95 44.5t102 24t100 7t100 -7t102 -23.5t95 -44.5t79 -69t54 -96.5t20 -128.5t-20 -129.5t-54 -97.5t-79 -68.5t-95 -44.5t-102 -24t-100 -7t-100 7t-102 23.5t-95 44.5t-79 69t-54 96.5t-20 128.5zM149 350q-1 -164 72 -251.5
t229 -88.5q78 0 135 23.5t93.5 68t54.5 108t18 141.5t-18 140.5t-54.5 107t-93.5 68t-135 23.5t-134.5 -22.5t-93.5 -66t-55 -106.5t-18 -145z" />
    <glyph glyph-name="I" unicode="I" horiz-adv-x="150" 
d="M0 0v700h150v-700h-150v0z" />
    <glyph glyph-name="uni0422" unicode="&#x422;" horiz-adv-x="793" 
d="M473 670v-670h-150v670h-323v30h793v-30h-320v0z" />
    <glyph glyph-name="E" unicode="E" horiz-adv-x="633" 
d="M0 0v700h573v-30h-423v-320h252l-21 -30h-231v-290h483v-30h-633z" />
    <glyph glyph-name="L" unicode="L" horiz-adv-x="573" 
d="M573 30v-30h-573v700h150v-670h423z" />
    <glyph glyph-name="U" unicode="U" horiz-adv-x="798" 
d="M420 0q-72 0 -146.5 12.5t-135 46t-99.5 92t-39 149.5v400h150v-400q0 -82 18.5 -134.5t53.5 -82.5t85 -41.5t113 -11.5h228v670h150v-700h-378z" />
    <glyph glyph-name="C" unicode="C" horiz-adv-x="841" 
d="M841 147q-33 -46 -79 -78t-98.5 -51.5t-107.5 -28.5t-106 -9q-48 0 -100 7t-102 23.5t-95 44.5t-79 69t-54 96.5t-20 128.5t20 129.5t54 97.5t79 68.5t95 44.5t102 24t100 7q52 0 108 -9t108.5 -29t99 -52.5t78.5 -79.5h-134q-35 67 -98.5 103.5t-161.5 36.5
q-78 0 -134.5 -22.5t-93.5 -66t-55 -106.5t-18 -145q-1 -164 72 -251.5t229 -88.5q97 -1 160.5 35t98.5 102h132z" />
    <glyph glyph-name="T" unicode="T" horiz-adv-x="793" 
d="M473 0h-150v670h-323v30h793v-30h-320v-670z" />
    <glyph glyph-name="H" unicode="H" horiz-adv-x="760" 
d="M150 320v-320h-150v700h150v-350h460v350h150v-700h-150v320h-460z" />
    <glyph glyph-name="P" unicode="P" horiz-adv-x="712" 
d="M433 350q43 0 71.5 24t43 59.5t14.5 77t-14.5 77t-43 59.5t-71.5 24l-283 -1v-320h283zM150 0h-150v700h523q63 0 105.5 -28t63.5 -70.5t21 -91.5t-21 -91.5t-63.5 -70.5t-105.5 -28h-373v-320z" />
    <glyph glyph-name="R" unicode="R" horiz-adv-x="727" 
d="M433 350q43 0 71.5 24t43 59.5t14.5 77.5t-14.5 77.5t-43 59t-71.5 23.5l-283 -1v-670h-150v700h523q63 0 105.5 -28t63.5 -70.5t21 -91.5t-21 -91.5t-63.5 -70.5t-105.5 -28h-21l225 -320h-172l-245 350h123z" />
    <glyph glyph-name="uni042F" unicode="&#x42f;" horiz-adv-x="727" 
d="M38 0h-38l225 320h-21q-63 0 -105.5 28t-63.5 70.5t-21 91.5t21 91.5t63.5 70.5t105.5 28h523v-700h-150v320h-315zM577 671h-283q-43 0 -71.5 -24t-43 -59.5t-14.5 -77t14.5 -77t43 -59.5t71.5 -24h283v321z" />
    <glyph glyph-name="D" unicode="D" horiz-adv-x="749" 
d="M0 700h350q72 0 143.5 -20.5t128.5 -63.5t92.5 -108.5t35.5 -156.5q0 -92 -35.5 -158t-92.5 -109t-128.5 -63.5t-143.5 -20.5h-350v700zM300 30q63 0 117.5 19.5t95 59t64 99.5t23.5 142q0 78 -23.5 137.5t-64 100t-95 61.5t-117.5 21h-150v-640h150z" />
    <glyph glyph-name="W" unicode="W" horiz-adv-x="1097" 
d="M0 700h172l494 -700h-172zM726 0h-30v239l-325 461h172l163 -231v231h30v-273l301 -427h-172l-139 197v-197zM1097 700v-700h-30v700h30z" />
    <glyph glyph-name="uni0421" unicode="&#x421;" horiz-adv-x="841" 
d="M841 147q-33 -46 -79 -78t-98.5 -51.5t-107.5 -28.5t-106 -9q-48 0 -100 7t-102 23.5t-95 44.5t-79 69t-54 96.5t-20 128.5t20 129.5t54 97.5t79 68.5t95 44.5t102 24t100 7q52 0 108 -9t108.5 -29t99 -52.5t78.5 -79.5h-134q-35 67 -98.5 103.5t-161.5 36.5
q-78 0 -134.5 -22.5t-93.5 -66t-55 -106.5t-18 -145q-1 -164 72 -251.5t229 -88.5q97 -1 160.5 35t98.5 102h132z" />
    <glyph glyph-name="uni0415" unicode="&#x415;" horiz-adv-x="633" 
d="M633 0h-633v700h573v-30h-423v-320h252l-21 -30h-231v-290h483v-30v0z" />
    <glyph glyph-name="G" unicode="G" horiz-adv-x="859" 
d="M709 320h-213l22 30h341v-203q-33 -46 -81.5 -78t-104.5 -51.5t-114 -28.5t-109 -9q-48 0 -100 7t-102 23.5t-95 44.5t-79 69t-54 96.5t-20 128.5t20 129.5t54 97.5t79 68.5t95 44.5t102 24t100 7q52 0 108 -9t108.5 -29t99 -52.5t78.5 -79.5h-134q-35 67 -98.5 103.5
t-161.5 36.5q-78 0 -134.5 -22.5t-93.5 -66t-55 -106.5t-18 -145q-1 -164 72 -251.5t229 -88.5q97 -1 160.5 35t98.5 102v173z" />
    <glyph glyph-name="F" unicode="F" horiz-adv-x="623" 
d="M150 0h-150v700h623v-30h-473v-320h295l-20 -30h-275v-320z" />
    <glyph glyph-name="X" unicode="X" horiz-adv-x="731" 
d="M37 0h-37l280 399l-210 301h172l164 -236l166 236h37l-184 -263l306 -437h-172l-261 373z" />
    <glyph glyph-name="B" unicode="B" horiz-adv-x="753" 
d="M606 376q52 -10 85.5 -42t48.5 -73.5t11.5 -87.5t-25.5 -84.5t-63 -63.5t-100 -25h-563v700h513q47 0 81.5 -17.5t55.5 -46t28.5 -63.5t2.5 -70t-24 -66t-51 -51v-10zM423 380q40 0 66.5 21.5t39.5 54t13 70t-13 70t-39.5 54t-66.5 21.5l-273 -1v-290h273zM150 30l323 -1
q43 0 71.5 23.5t43 59t14.5 77.5t-14.5 77.5t-43 59.5t-71.5 24h-323v-320z" />
    <glyph glyph-name="Z" unicode="Z" horiz-adv-x="713" 
d="M0 0l473 670h-460v30h653l-473 -670h520v-30h-713z" />
    <glyph glyph-name="J" unicode="J" horiz-adv-x="673" 
d="M673 222q0 -79 -30.5 -127t-76.5 -73.5t-100 -33.5t-101 -8t-99.5 12t-102 33.5t-92.5 52.5t-71 69h147q20 -32 42 -57t48 -43t57.5 -27.5t70.5 -9.5q78 0 118 47.5t40 133.5v509h150v-478z" />
    <glyph glyph-name="Q" unicode="Q" horiz-adv-x="900" 
d="M437 237h170l242 -345h-172l-73 105q-38 -9 -77.5 -13t-76.5 -4q-48 0 -100 7t-102 23.5t-95 44.5t-79 69t-54 96.5t-20 128.5t20 129.5t54 97.5t79 68.5t95 44.5t102 24t100 7t100 -7t102 -23.5t95 -44.5t79 -69t54 -96.5t20 -128.5q0 -67 -16.5 -119t-45.5 -92h-134
q24 42 35.5 95t11.5 116q0 78 -18 140.5t-54.5 107t-93.5 68t-135 23.5t-134.5 -22.5t-93.5 -66t-55 -106.5t-18 -145q-1 -164 72 -251.5t229 -88.5q38 0 68.5 5t61.5 16z" />
    <glyph glyph-name="Y" unicode="Y" horiz-adv-x="734" 
d="M0 700h172l264 -374l261 374h37l-280 -400v-300h-172v300z" />
    <glyph glyph-name="S" unicode="S" horiz-adv-x="834" 
d="M420 690q-36 0 -73 -4t-66.5 -17.5t-48.5 -39t-20 -68.5q-1 -42 25.5 -68.5t70 -43.5t99.5 -27t114 -20.5t114.5 -24.5t100 -37.5t70.5 -59.5t27 -92q0 -62 -36 -102t-93.5 -63.5t-130.5 -33t-148 -9.5q-52 0 -112.5 9t-119 29t-109.5 52.5t-83 79.5h134q17 -33 46.5 -59
t67 -44t82.5 -27.5t94 -9.5q68 2 114 15t73.5 37.5t39.5 61t12 85.5q0 47 -26.5 78t-70 50.5t-99.5 31.5t-114 21t-114 19t-99.5 25.5t-70.5 40.5t-27 64q0 37 19.5 64.5t51.5 47.5t73 33.5t83 21.5t81 11t69 3q52 0 108 -9t108.5 -29t99 -52.5t78.5 -79.5h-134
q-35 67 -98.5 103.5t-161.5 36.5z" />
    <glyph glyph-name="m" unicode="m" horiz-adv-x="833" 
 />
    <glyph glyph-name="uni0411" unicode="&#x411;" horiz-adv-x="729" 
d="M449 29q43 0 71.5 24t43 59.5t14.5 77t-14.5 77t-43 59.5t-71.5 24h-299v-320zM0 0v700h609v-30h-459v-290h389q63 0 105.5 -28t63.5 -70.5t21 -91.5t-21 -91.5t-63.5 -70.5t-105.5 -28h-539z" />
    <glyph glyph-name="uni0412" unicode="&#x412;" horiz-adv-x="753" 
d="M606 376q52 -10 85.5 -42t48.5 -73.5t11.5 -87.5t-25.5 -84.5t-63 -63.5t-100 -25h-563v700h513q47 0 81.5 -17.5t55.5 -46t28.5 -63.5t2.5 -70t-24 -66t-51 -51v-10zM423 380q40 0 66.5 21.5t39.5 54t13 70t-13 70t-39.5 54t-66.5 21.5l-273 -1v-290h273zM150 30l323 -1
q43 0 71.5 23.5t43 59t14.5 77.5t-14.5 77.5t-43 59.5t-71.5 24h-323v-320z" />
    <glyph glyph-name="uni0425" unicode="&#x425;" horiz-adv-x="731" 
d="M298 373l-261 -373h-37l280 399l-210 301h172l164 -236l166 236h37l-184 -263l306 -437h-172l-261 373v0z" />
    <glyph glyph-name="uni0413" unicode="&#x413;" horiz-adv-x="623" 
d="M150 0h-150v700h623v-30h-473v-670z" />
    <glyph glyph-name="uni0427" unicode="&#x427;" horiz-adv-x="750" 
d="M600 350v350h150v-700h-150v320h-410q-48 0 -83.5 16.5t-59 43t-35.5 60.5t-12 70v190h150l1 -190q0 -30 8 -59t24 -51.5t40.5 -36t56.5 -13.5h320z" />
    <glyph glyph-name="uni042C" unicode="&#x42c;" horiz-adv-x="723" 
d="M533 350q63 0 105.5 -26t63.5 -65t21 -84t-21 -84t-63.5 -65t-105.5 -26h-533v700h150v-350h383zM150 30l293 -1q43 0 71.5 21.5t43 54t14.5 70t-14.5 70t-43 54t-71.5 21.5h-293v-290z" />
    <glyph glyph-name="uni0414" unicode="&#x414;" horiz-adv-x="838" 
d="M838 30v-30h-838l491 700h37l-470 -670h490v670h150v-670h140z" />
    <glyph glyph-name="uni042D" unicode="&#x42d;" horiz-adv-x="845" 
d="M332 320l21 30h342q0 82 -18 145t-55 106.5t-93.5 66t-134.5 22.5q-98 0 -161.5 -36.5t-98.5 -103.5h-134q32 47 78.5 79.5t99 52.5t108.5 29t108 9q48 0 100 -7t102 -24t95 -44.5t79 -68.5t54 -97.5t20 -129.5t-20 -128.5t-54 -96.5t-79 -69t-95 -44.5t-102 -23.5
t-100 -7q-51 0 -106 9t-107.5 28.5t-98.5 51.5t-79 78h132q35 -66 98.5 -102t160.5 -35q150 1 223 80t78 230h-363z" />
    <glyph glyph-name="uni042E" unicode="&#x42e;" horiz-adv-x="1200" 
d="M150 0h-150v700h150v-350h150q0 73 20 129t54 97.5t79 69t95 44t102 23.5t100 7t100 -7t102 -23.5t95 -44.5t79 -69t54 -96.5t20 -128.5t-20 -129.5t-54 -97.5t-79 -68.5t-95 -44.5t-102 -24t-100 -7q-47 0 -97 6.5t-99 22t-93 41t-78 63t-56 89t-26 118.5h-151v-320z
M449 350q-1 -164 72 -251.5t229 -88.5q78 0 135 23.5t93.5 68t54.5 108t18 141.5t-18 140.5t-54.5 107t-93.5 68t-135 23.5t-134.5 -22.5t-93.5 -66t-55 -106.5t-18 -145z" />
    <glyph glyph-name="uni042A" unicode="&#x42a;" horiz-adv-x="909" 
d="M720 350q63 0 105.5 -26t63.5 -65t21 -84t-21 -84t-63.5 -65t-105.5 -26h-533v670h-187v30h337v-350h383zM337 30l293 -1q43 0 71.5 21.5t43 54t14.5 70t-14.5 70t-43 54t-71.5 21.5h-293v-290z" />
    <glyph glyph-name="uni042B" unicode="&#x42b;" horiz-adv-x="936" 
d="M786 700h150v-700h-150v700zM533 350q63 0 105.5 -26t63.5 -65t21 -84t-21 -84t-63.5 -65t-105.5 -26h-533v700h150v-350h383zM150 30l293 -1q43 0 71.5 21.5t43 54t14.5 70t-14.5 70t-43 54t-71.5 21.5h-293v-290z" />
    <glyph glyph-name="uni0426" unicode="&#x426;" horiz-adv-x="850" 
d="M0 0v700h150v-670h430v670h150v-670h120v-190h-30v160h-820z" />
    <glyph glyph-name="uni0429" unicode="&#x429;" horiz-adv-x="1081" 
d="M0 0v700h150v-670h250v670h150v-670h250v670h150v-670h131v-190h-30v160h-1051z" />
    <glyph glyph-name="uni0428" unicode="&#x428;" horiz-adv-x="950" 
d="M0 0v700h150v-670h250v670h150v-670h250v670h150v-700h-950z" />
    <glyph glyph-name="uni0419" unicode="&#x419;" horiz-adv-x="762" 
d="M514 800v-30h-283v30h283zM612 0v700h150v-700h-150zM0 0v700h150v-630l394 560h38l-443 -630h-139z" />
    <glyph glyph-name="uni0417" unicode="&#x417;" horiz-adv-x="824" 
d="M630 370q36 -4 70.5 -16.5t62 -34.5t44.5 -54.5t17 -76.5q0 -35 -23 -72t-72.5 -67t-127 -49.5t-185.5 -19.5q-52 0 -111 9t-115.5 29t-106 52.5t-81.5 79.5h134q35 -67 108.5 -103.5t171.5 -36.5q64 2 111.5 16t78 38t45.5 55.5t14 69.5q-1 49 -24.5 80t-63 49t-92.5 25
t-112 7v30q21 0 49 0.5t57 4.5t57.5 13t50.5 26t35.5 43t12.5 64q-2 72 -53.5 115.5t-154.5 43.5q-98 0 -161.5 -36.5t-98.5 -103.5h-134q32 47 78.5 79.5t99 52.5t108.5 29t108 9q100 0 167 -17.5t107 -44t56.5 -58.5t16.5 -61t-13.5 -54t-34.5 -46t-46.5 -36t-49.5 -23
v-10z" />
    <glyph glyph-name="uni0401" unicode="&#x401;" horiz-adv-x="633" 
d="M313 820l-21 -30h-112v30h133zM496 820v-30h-174l21 30h153zM633 0h-633v700h573v-30h-423v-320h252l-21 -30h-231v-290h483v-30z" />
    <glyph glyph-name="one" unicode="1" horiz-adv-x="433" 
d="M433 0h-150v670h-283v30h433v-700z" />
    <glyph glyph-name="zero" unicode="0" horiz-adv-x="820" 
d="M0 349q0 110 37.5 182t96 114t131.5 58.5t145 16.5t145.5 -16.5t132 -58.5t95.5 -113.5t37 -180.5q0 -110 -37 -182t-96 -114t-132 -58.5t-145 -16.5t-145.5 16.5t-132 58.5t-95.5 113t-37 181zM149 350q0 -63 11.5 -124t41 -109t80 -77.5t128.5 -29.5t128.5 30.5t80 80
t41 110t11.5 120.5q0 59 -11.5 119.5t-41 109t-80 79.5t-128.5 31t-128.5 -29.5t-79.5 -77.5t-41 -109t-12 -124z" />
    <glyph glyph-name="seven" unicode="7" horiz-adv-x="664" 
d="M0 580l84 120h580l-491 -700h-43l413 580h-543z" />
    <glyph glyph-name="three" unicode="3" horiz-adv-x="701" 
d="M426 451q97 -11 159.5 -50t89.5 -91.5t18.5 -110.5t-53.5 -106.5t-126 -80.5t-198 -32q-37 0 -81.5 8.5t-88.5 28t-82.5 49.5t-62.5 74h30q26 -42 64 -67.5t78.5 -39.5t78.5 -18.5t64 -4.5q59 1 106.5 26.5t76.5 63t36.5 81.5t-11.5 81.5t-68 62.5t-134 25l161 230h-406
l84 120h438z" />
    <glyph glyph-name="four" unicode="4" horiz-adv-x="708" 
d="M0 200l351 500h37l-330 -470h350v470h150v-470h150l-21 -30h-129v-200h-150v200h-408z" />
    <glyph glyph-name="two" unicode="2" horiz-adv-x="657" 
d="M0 0q44 44 93 86.5t97.5 84t92 83t77 85t53 89.5t19.5 97q0 47 -23 79.5t-59 49.5t-80.5 19.5t-87.5 -10.5t-80 -40.5t-58 -69.5h-30q26 57 79.5 95t118 56t132.5 16t123.5 -25t90.5 -67t34 -110q-1 -37 -25.5 -76.5t-63 -78.5t-86 -76t-92 -69t-82.5 -57.5t-57 -40.5
h471l-84 -120h-573z" />
    <glyph glyph-name="five" unicode="5" horiz-adv-x="666" 
d="M166 407q23 14 69.5 22t103 6.5t116.5 -14.5t108.5 -40t80 -70t31.5 -105q0 -40 -18.5 -80.5t-61 -72.5t-111 -52.5t-168.5 -20.5q-37 0 -81.5 8.5t-88.5 28t-82.5 49.5t-62.5 74h30q26 -42 64 -67.5t78.5 -39.5t78.5 -18.5t64 -4.5q51 1 88.5 18.5t62.5 45.5t37 63
t12 71q0 50 -18 87.5t-48 62t-69 36.5t-81 11t-84.5 -15t-79.5 -40v350h499l-84 -120h-385v-173z" />
    <glyph glyph-name="six" unicode="6" horiz-adv-x="763" 
d="M384 431q-23 0 -54.5 -4t-64.5 -18t-64 -41.5t-53 -74.5q1 -34 12 -82.5t37.5 -93t72 -76t114.5 -31.5q62 0 104.5 19t68 49t36.5 67t11 73q0 63 -19.5 103.5t-51 64.5t-70.5 33.5t-79 11.5zM643 560q-31 60 -93.5 94t-166.5 33q-65 0 -108.5 -28t-71 -74.5t-40 -107.5
t-14.5 -127q18 30 47.5 51t62.5 33.5t66 18t59 5.5q100 0 172 -18.5t118 -51t67.5 -77t21.5 -95.5q0 -40 -21.5 -82t-67.5 -76t-118 -56t-172 -22q-90 0 -161 27t-120.5 76t-76.5 117t-27 150q0 85 28.5 152.5t79.5 115t122 72.5t155 27q76 1 135.5 -13.5t103 -37.5
t71 -51.5t39.5 -54.5h-90z" />
    <glyph glyph-name="nine" unicode="9" horiz-adv-x="762" 
d="M377 270q22 0 54 4t65 18t64 41.5t53 74.5q-1 34 -12 82.5t-37.5 93t-72 76t-114.5 31.5q-62 0 -104.5 -19t-68 -49t-36.5 -67t-11 -73q0 -63 19.5 -103.5t51 -64.5t70.5 -34t79 -11zM118 141q31 -60 93.5 -94t166.5 -33q64 0 108 28t71.5 74.5t40 107.5t14.5 127
q-18 -30 -47.5 -51t-62.5 -33.5t-66 -18t-59 -5.5q-100 0 -172 18.5t-118 51t-67.5 77t-21.5 95.5q0 40 21.5 82t67.5 76t118 56t172 22q90 0 161 -27t120.5 -76t76.5 -117t27 -150q0 -86 -28.5 -153t-79.5 -114.5t-122 -73t-155 -26.5q-76 -2 -135.5 13t-103 38t-71 51.5
t-39.5 54.5h90z" />
    <glyph glyph-name="eight" unicode="8" horiz-adv-x="752" 
d="M461 413q28 8 51 18.5t39.5 26t25 36.5t8.5 49q-1 39 -20 66.5t-50 45.5t-70.5 26.5t-81.5 8.5q-95 1 -155.5 -26t-71.5 -70q-7 -28 7 -50.5t41.5 -40.5t64 -32.5t75 -25.5t74.5 -19t63 -13zM501 399q49 -14 94.5 -32t80 -43t55.5 -59t21 -79q0 -51 -27 -89.5
t-77.5 -64.5t-122.5 -39t-162 -13q-89 0 -157 17.5t-114 46t-69.5 67t-23.5 80.5t16 71t43.5 49.5t64 33t77.5 20.5q-38 12 -70 28t-56 36.5t-37 47.5t-13 62q1 88 84.5 134.5t254.5 46.5q70 0 128.5 -12t100 -35t64.5 -55.5t23 -73.5q0 -34 -14 -58t-38 -40.5t-56.5 -27.5
t-69.5 -19zM248 350q-31 -9 -57.5 -22.5t-46 -32t-30.5 -44t-11 -59.5q0 -41 18.5 -74.5t53 -57.5t82.5 -37t106 -13q49 0 94.5 8.5t80 28t54.5 50.5t18 77q-2 37 -36 63t-86 45.5t-115.5 35t-124.5 32.5z" />
    <glyph glyph-name="period" unicode="." horiz-adv-x="334" 
d="M141 88h88v-88h-88v88z" />
    <glyph glyph-name="comma" unicode="," horiz-adv-x="396" 
d="M168 0v88h88v-88l-77 -110h-30l77 110h-58v0z" />
    <glyph glyph-name="exclam" unicode="!" horiz-adv-x="395" 
d="M167 0v88h88v-88h-88zM187 138l-60 562h168l-60 -562h-48z" />
    <glyph glyph-name="semicolon" unicode=";" horiz-adv-x="409" 
d="M168 0v88h88v-88l-77 -110h-30l77 110h-58zM168 330v88h88v-88h-88z" />
    <glyph glyph-name="colon" unicode=":" horiz-adv-x="415" 
d="M168 0v88h88v-88h-88zM168 330v88h88v-88h-88z" />
    <glyph glyph-name="quotedbl" unicode="&#x22;" horiz-adv-x="562" 
d="M168 612v88h88v-88l-77 -110h-30l77 110h-58zM328 612v88h88v-88l-77 -110h-30l77 110h-58z" />
    <glyph glyph-name="plus" unicode="+" horiz-adv-x="616" 
d="M80 335v30h185v185h40v-185h175v-30h-175v-185h-40v185h-185z" />
    <glyph glyph-name="uni041C" unicode="&#x41c;" horiz-adv-x="1149" 
d="M38 0h-38l491 700h38zM1149 700v-700h-150v700h150zM979 700l-430 -616v616h150v-345l242 345h38z" />
    <glyph glyph-name="uni0410" unicode="&#x410;" horiz-adv-x="698" 
d="M262 320l-225 -320h-37l491 700h37l-245 -350h265v350h150v-700h-150v320h-286v0z" />
    <glyph glyph-name="uni041B" unicode="&#x41b;" horiz-adv-x="698" 
d="M548 0v700h150v-700h-150zM37 0h-37l491 700h37z" />
    </font>
</defs>
</svg>
