<svg width="200" height="8" viewBox="0 0 200 8" fill="none" xmlns="http://www.w3.org/2000/svg">
<path d="M199.764 4.41656C199.959 4.22136 199.96 3.90478 199.764 3.70945L196.583 0.52647C196.388 0.331147 196.072 0.331047 195.876 0.526247C195.681 0.721448 195.681 1.03803 195.876 1.23335L198.704 4.06267L195.874 6.89021C195.679 7.08541 195.679 7.40199 195.874 7.59731C196.069 7.79264 196.386 7.79274 196.581 7.59754L199.764 4.41656ZM-0.000157705 4.5L99.7052 4.53145L99.7055 3.53145L0.000157705 3.5L-0.000157705 4.5ZM99.7052 4.53145L199.411 4.5629L199.411 3.5629L99.7055 3.53145L99.7052 4.53145Z" fill="#000"/>
</svg>
